<svg width="340" height="68" viewBox="0 0 340 68" fill="none" xmlns="http://www.w3.org/2000/svg">
<path d="M82.2969 19.4727H88.4883L107.512 29.4336V19.4727H113.703V50H107.512V35.9961L88.4883 26.0938V50H82.2969V19.4727ZM120.52 38.3984C120.52 36.8359 120.839 35.3451 121.477 33.9258C122.115 32.4935 123.033 31.2305 124.23 30.1367C125.428 29.043 126.893 28.1706 128.625 27.5195C130.37 26.8685 132.349 26.543 134.562 26.543C136.763 26.543 138.742 26.875 140.5 27.5391C142.271 28.1901 143.768 29.0885 144.992 30.2344C146.229 31.3802 147.173 32.7279 147.824 34.2773C148.488 35.8268 148.82 37.487 148.82 39.2578C148.82 39.4792 148.814 39.7201 148.801 39.9805C148.801 40.2279 148.788 40.4557 148.762 40.6641H126.965C127.212 41.3542 127.609 41.9857 128.156 42.5586C128.716 43.1315 129.413 43.6263 130.246 44.043C131.079 44.4596 132.043 44.7852 133.137 45.0195C134.23 45.2409 135.441 45.3516 136.77 45.3516C138.098 45.3516 139.419 45.2148 140.734 44.9414C142.049 44.6549 143.306 44.2969 144.504 43.8672L146.457 48.2812C145.702 48.6328 144.934 48.9453 144.152 49.2188C143.384 49.4792 142.577 49.7005 141.73 49.8828C140.897 50.0521 140.018 50.1823 139.094 50.2734C138.182 50.3646 137.219 50.4102 136.203 50.4102C133.612 50.4102 131.34 50.0977 129.387 49.4727C127.434 48.8477 125.799 47.9948 124.484 46.9141C123.169 45.8333 122.18 44.5638 121.516 43.1055C120.852 41.6471 120.52 40.0781 120.52 38.3984ZM142.688 36.1523C142.479 35.5143 142.154 34.9219 141.711 34.375C141.281 33.8151 140.741 33.3333 140.09 32.9297C139.439 32.513 138.684 32.1875 137.824 31.9531C136.965 31.7188 136.021 31.6016 134.992 31.6016C133.898 31.6016 132.902 31.7253 132.004 31.9727C131.105 32.2201 130.318 32.5521 129.641 32.9688C128.964 33.3854 128.397 33.8672 127.941 34.4141C127.499 34.9609 127.173 35.5404 126.965 36.1523H142.688ZM161.027 38.4766L151.496 26.9336H158.879L164.66 33.9648L170.148 26.9336H177.355L168.391 38.457L177.922 50H170.539L164.582 42.793L159.055 50H151.848L161.027 38.4766ZM185.09 31.2891H179.523V26.9531H185.09V19.7852H190.871V26.9531H196.438V31.2891H190.871V50H185.09V31.2891ZM202.297 19.4727H218.605C220.598 19.4727 222.329 19.6875 223.801 20.1172C225.285 20.5339 226.516 21.1133 227.492 21.8555C228.469 22.5977 229.191 23.4831 229.66 24.5117C230.142 25.5273 230.383 26.6276 230.383 27.8125C230.383 29.7526 229.771 31.4518 228.547 32.9102C229.953 33.7435 231.001 34.8242 231.691 36.1523C232.382 37.4805 232.727 38.9909 232.727 40.6836C232.727 42.1029 232.486 43.3854 232.004 44.5312C231.535 45.6771 230.812 46.6602 229.836 47.4805C228.872 48.2878 227.648 48.9128 226.164 49.3555C224.693 49.7852 222.954 50 220.949 50H202.297V19.4727ZM220.988 31.1914C221.522 31.1914 222.043 31.2109 222.551 31.25C223.423 30.4167 223.859 29.4661 223.859 28.3984C223.859 27.2917 223.423 26.4388 222.551 25.8398C221.691 25.2279 220.428 24.9219 218.762 24.9219H208.488V31.1914H220.988ZM221.105 44.6094C222.772 44.6094 224.035 44.2513 224.895 43.5352C225.767 42.819 226.203 41.8099 226.203 40.5078C226.203 39.2057 225.767 38.1901 224.895 37.4609C224.035 36.7318 222.772 36.3672 221.105 36.3672H208.488V44.6094H221.105ZM236.906 38.4766C236.906 36.8229 237.238 35.2734 237.902 33.8281C238.579 32.3828 239.536 31.1198 240.773 30.0391C242.023 28.9583 243.527 28.1055 245.285 27.4805C247.056 26.8555 249.042 26.543 251.242 26.543C253.443 26.543 255.422 26.8555 257.18 27.4805C258.951 28.1055 260.454 28.9583 261.691 30.0391C262.941 31.1198 263.898 32.3828 264.562 33.8281C265.24 35.2734 265.578 36.8229 265.578 38.4766C265.578 40.1302 265.24 41.6797 264.562 43.125C263.898 44.5703 262.941 45.8333 261.691 46.9141C260.454 47.9948 258.951 48.8477 257.18 49.4727C255.422 50.0977 253.443 50.4102 251.242 50.4102C249.042 50.4102 247.056 50.0977 245.285 49.4727C243.527 48.8477 242.023 47.9948 240.773 46.9141C239.536 45.8333 238.579 44.5703 237.902 43.125C237.238 41.6797 236.906 40.1302 236.906 38.4766ZM242.98 38.4766C242.98 39.401 243.163 40.2799 243.527 41.1133C243.905 41.9336 244.445 42.6628 245.148 43.3008C245.865 43.9258 246.73 44.4271 247.746 44.8047C248.775 45.1693 249.94 45.3516 251.242 45.3516C252.544 45.3516 253.703 45.1693 254.719 44.8047C255.747 44.4271 256.613 43.9258 257.316 43.3008C258.033 42.6628 258.573 41.9336 258.938 41.1133C259.315 40.2799 259.504 39.401 259.504 38.4766C259.504 37.5521 259.315 36.6732 258.938 35.8398C258.573 35.0065 258.033 34.2773 257.316 33.6523C256.613 33.0143 255.747 32.513 254.719 32.1484C253.703 31.7708 252.544 31.582 251.242 31.582C249.94 31.582 248.775 31.7708 247.746 32.1484C246.73 32.513 245.865 33.0143 245.148 33.6523C244.445 34.2773 243.905 35.0065 243.527 35.8398C243.163 36.6732 242.98 37.5521 242.98 38.4766ZM270.031 38.4766C270.031 36.8229 270.363 35.2734 271.027 33.8281C271.704 32.3828 272.661 31.1198 273.898 30.0391C275.148 28.9583 276.652 28.1055 278.41 27.4805C280.181 26.8555 282.167 26.543 284.367 26.543C286.568 26.543 288.547 26.8555 290.305 27.4805C292.076 28.1055 293.579 28.9583 294.816 30.0391C296.066 31.1198 297.023 32.3828 297.688 33.8281C298.365 35.2734 298.703 36.8229 298.703 38.4766C298.703 40.1302 298.365 41.6797 297.688 43.125C297.023 44.5703 296.066 45.8333 294.816 46.9141C293.579 47.9948 292.076 48.8477 290.305 49.4727C288.547 50.0977 286.568 50.4102 284.367 50.4102C282.167 50.4102 280.181 50.0977 278.41 49.4727C276.652 48.8477 275.148 47.9948 273.898 46.9141C272.661 45.8333 271.704 44.5703 271.027 43.125C270.363 41.6797 270.031 40.1302 270.031 38.4766ZM276.105 38.4766C276.105 39.401 276.288 40.2799 276.652 41.1133C277.03 41.9336 277.57 42.6628 278.273 43.3008C278.99 43.9258 279.855 44.4271 280.871 44.8047C281.9 45.1693 283.065 45.3516 284.367 45.3516C285.669 45.3516 286.828 45.1693 287.844 44.8047C288.872 44.4271 289.738 43.9258 290.441 43.3008C291.158 42.6628 291.698 41.9336 292.062 41.1133C292.44 40.2799 292.629 39.401 292.629 38.4766C292.629 37.5521 292.44 36.6732 292.062 35.8398C291.698 35.0065 291.158 34.2773 290.441 33.6523C289.738 33.0143 288.872 32.513 287.844 32.1484C286.828 31.7708 285.669 31.582 284.367 31.582C283.065 31.582 281.9 31.7708 280.871 32.1484C279.855 32.513 278.99 33.0143 278.273 33.6523C277.57 34.2773 277.03 35.0065 276.652 35.8398C276.288 36.6732 276.105 37.5521 276.105 38.4766ZM304.562 17.5977H310.344V36.7383L321.125 26.9531H329.973L317.922 37.7344L330.734 50H322.062L313.488 41.6992L310.344 44.5117V50H304.562V17.5977Z" fill="white"/>
<path d="M12.75 0.75H54.5V50.25H14.875C12.9853 50.25 11.1731 51.0007 9.83691 52.3369C8.50072 53.6731 7.75 55.4853 7.75 57.375C7.75 59.2647 8.50072 61.0769 9.83691 62.4131C11.1731 63.7493 12.9853 64.5 14.875 64.5H60.25V9.25H63V67.25H12.75C8.48921 67.25 5 63.7608 5 59.5V8.5C5 4.23921 8.48921 0.75 12.75 0.75Z" fill="#407BFF" stroke="white" stroke-width="1.5"/>
<path d="M14.8789 55.25C14.3153 55.25 13.7748 55.4739 13.3763 55.8724C12.9778 56.2709 12.7539 56.8114 12.7539 57.375C12.7539 57.9386 12.9778 58.4791 13.3763 58.8776C13.7748 59.2761 14.3153 59.5 14.8789 59.5H55.2497V55.25H14.8789Z" fill="white"/>
<mask id="path-4-inside-1_114_5" fill="white">
<path fill-rule="evenodd" clip-rule="evenodd" d="M34.9659 50.9449L34.9416 50.9493L34.7848 51.0266L34.7407 51.0354L34.7098 51.0266L34.553 50.9493C34.5294 50.9419 34.5117 50.9456 34.5 50.9603L34.4911 50.9824L34.4536 51.9276L34.4646 51.9718L34.4867 52.0005L34.7164 52.1639L34.7495 52.1727L34.776 52.1639L35.0057 52.0005L35.0322 51.9651L35.041 51.9276L35.0035 50.9846C34.9976 50.9611 34.9851 50.9478 34.9659 50.9449ZM35.5511 50.6953L35.5224 50.6998L35.1139 50.9051L35.0918 50.9272L35.0852 50.9515L35.1249 51.9011L35.136 51.9276L35.1536 51.943L35.5975 52.1484C35.6255 52.1558 35.6468 52.1499 35.6616 52.1308L35.6704 52.0998L35.5953 50.7439C35.5879 50.7174 35.5732 50.7012 35.5511 50.6953ZM33.9722 50.6998C33.9624 50.6939 33.9508 50.6919 33.9397 50.6944C33.9286 50.6969 33.9189 50.7035 33.9126 50.713L33.8993 50.7439L33.8242 52.0998C33.8257 52.1263 33.8382 52.144 33.8618 52.1528L33.8949 52.1484L34.3388 51.943L34.3608 51.9254L34.3697 51.9011L34.4072 50.9515L34.4006 50.925L34.3785 50.9029L33.9722 50.6998Z"/>
</mask>
<path fill-rule="evenodd" clip-rule="evenodd" d="M34.9659 50.9449L34.9416 50.9493L34.7848 51.0266L34.7407 51.0354L34.7098 51.0266L34.553 50.9493C34.5294 50.9419 34.5117 50.9456 34.5 50.9603L34.4911 50.9824L34.4536 51.9276L34.4646 51.9718L34.4867 52.0005L34.7164 52.1639L34.7495 52.1727L34.776 52.1639L35.0057 52.0005L35.0322 51.9651L35.041 51.9276L35.0035 50.9846C34.9976 50.9611 34.9851 50.9478 34.9659 50.9449ZM35.5511 50.6953L35.5224 50.6998L35.1139 50.9051L35.0918 50.9272L35.0852 50.9515L35.1249 51.9011L35.136 51.9276L35.1536 51.943L35.5975 52.1484C35.6255 52.1558 35.6468 52.1499 35.6616 52.1308L35.6704 52.0998L35.5953 50.7439C35.5879 50.7174 35.5732 50.7012 35.5511 50.6953ZM33.9722 50.6998C33.9624 50.6939 33.9508 50.6919 33.9397 50.6944C33.9286 50.6969 33.9189 50.7035 33.9126 50.713L33.8993 50.7439L33.8242 52.0998C33.8257 52.1263 33.8382 52.144 33.8618 52.1528L33.8949 52.1484L34.3388 51.943L34.3608 51.9254L34.3697 51.9011L34.4072 50.9515L34.4006 50.925L34.3785 50.9029L33.9722 50.6998Z" fill="#00EA08"/>
<path d="M34.9659 50.9449L35.27 48.9681L34.9383 48.9171L34.608 48.9772L34.9659 50.9449ZM34.9416 50.9493L34.5837 48.9816L34.3084 49.0317L34.0573 49.1554L34.9416 50.9493ZM34.7848 51.0266L35.1771 52.9878L35.4341 52.9364L35.6691 52.8205L34.7848 51.0266ZM34.7407 51.0354L34.1913 52.9585L34.6575 53.0917L35.1329 52.9966L34.7407 51.0354ZM34.7098 51.0266L33.8255 52.8205L33.9871 52.9001L34.1604 52.9496L34.7098 51.0266ZM34.553 50.9493L35.4373 49.1554L35.2979 49.0867L35.1495 49.0403L34.553 50.9493ZM34.5 50.9603L32.9382 49.7109L32.7531 49.9424L32.643 50.2176L34.5 50.9603ZM34.4911 50.9824L32.6342 50.2397L32.5064 50.5592L32.4927 50.903L34.4911 50.9824ZM34.4536 51.9276L32.4552 51.8482L32.4438 52.1346L32.5133 52.4127L34.4536 51.9276ZM34.4646 51.9718L32.5244 52.4568L32.6254 52.861L32.8794 53.1912L34.4646 51.9718ZM34.4867 52.0005L32.9015 53.2199L33.0837 53.4568L33.3272 53.63L34.4867 52.0005ZM34.7164 52.1639L33.5569 53.7935L33.8516 54.0032L34.2011 54.0964L34.7164 52.1639ZM34.7495 52.1727L34.2342 54.1052L34.8133 54.2596L35.3819 54.0701L34.7495 52.1727ZM34.776 52.1639L35.4084 54.0613L35.692 53.9667L35.9355 53.7935L34.776 52.1639ZM35.0057 52.0005L36.1652 53.63L36.4189 53.4495L36.6057 53.2004L35.0057 52.0005ZM35.0322 51.9651L36.6322 53.1651L36.8832 52.8304L36.979 52.4232L35.0322 51.9651ZM35.041 51.9276L36.9879 52.3856L37.0503 52.1203L37.0394 51.848L35.041 51.9276ZM35.0035 50.9846L37.0019 50.9051L36.9937 50.6993L36.9438 50.4996L35.0035 50.9846ZM35.5511 50.6953L36.0665 48.7629L35.6615 48.6549L35.2472 48.7186L35.5511 50.6953ZM35.5224 50.6998L35.2185 48.723L34.9063 48.771L34.6241 48.9128L35.5224 50.6998ZM35.1139 50.9051L34.2156 49.1182L33.9276 49.263L33.6997 49.4909L35.1139 50.9051ZM35.0918 50.9272L33.6776 49.513L33.302 49.8886L33.1622 50.4011L35.0918 50.9272ZM35.0852 50.9515L33.1556 50.4254L33.0739 50.7249L33.0869 51.0351L35.0852 50.9515ZM35.1249 51.9011L33.1267 51.9847L33.1416 52.3411L33.2788 52.6704L35.1249 51.9011ZM35.136 51.9276L33.2898 52.6969L33.4688 53.1264L33.819 53.4328L35.136 51.9276ZM35.1536 51.943L33.8367 53.4482L34.053 53.6375L34.3138 53.7582L35.1536 51.943ZM35.5975 52.1484L34.7577 53.9635L34.9178 54.0377L35.0885 54.0826L35.5975 52.1484ZM35.6616 52.1308L37.2468 53.3502L37.4797 53.0474L37.5846 52.6802L35.6616 52.1308ZM35.6704 52.0998L37.5934 52.6492L37.6859 52.3255L37.6673 51.9893L35.6704 52.0998ZM35.5953 50.7439L37.5922 50.6333L37.5803 50.4172L37.5223 50.2086L35.5953 50.7439ZM33.9722 50.6998L32.9356 52.4102L33.0051 52.4523L33.0777 52.4886L33.9722 50.6998ZM33.9126 50.713L32.2491 49.6026L32.1469 49.7558L32.0743 49.9251L33.9126 50.713ZM33.8993 50.7439L32.061 49.956L31.9219 50.2807L31.9024 50.6333L33.8993 50.7439ZM33.8242 52.0998L31.8273 51.9893L31.8211 52.1L31.8273 52.2108L33.8242 52.0998ZM33.8618 52.1528L33.1595 54.0255L33.6291 54.2016L34.1262 54.1353L33.8618 52.1528ZM33.8949 52.1484L34.1593 54.1309L34.4597 54.0908L34.7347 53.9635L33.8949 52.1484ZM34.3388 51.943L35.1786 53.7582L35.3987 53.6563L35.5881 53.5048L34.3388 51.943ZM34.3608 51.9254L35.6102 53.4872L36.0486 53.1365L36.2404 52.6088L34.3608 51.9254ZM34.3697 51.9011L36.2493 52.5845L36.3558 52.2916L36.3681 51.9801L34.3697 51.9011ZM34.4072 50.9515L36.4057 51.0305L36.417 50.7443L36.3475 50.4664L34.4072 50.9515ZM34.4006 50.925L36.3409 50.4399L36.2065 49.9025L35.8148 49.5108L34.4006 50.925ZM34.3785 50.9029L35.7927 49.4887L35.5632 49.2592L35.2729 49.1141L34.3785 50.9029ZM34.9659 50.9449L34.608 48.9772L34.5837 48.9816L34.9416 50.9493L35.2995 52.917L35.3238 52.9126L34.9659 50.9449ZM34.9416 50.9493L34.0573 49.1554L33.9005 49.2327L34.7848 51.0266L35.6691 52.8205L35.8259 52.7432L34.9416 50.9493ZM34.7848 51.0266L34.3926 49.0654L34.3485 49.0743L34.7407 51.0354L35.1329 52.9966L35.1771 52.9878L34.7848 51.0266ZM34.7407 51.0354L35.2901 49.1124L35.2592 49.1035L34.7098 51.0266L34.1604 52.9496L34.1913 52.9585L34.7407 51.0354ZM34.7098 51.0266L35.5941 49.2327L35.4373 49.1554L34.553 50.9493L33.6687 52.7432L33.8255 52.8205L34.7098 51.0266ZM34.553 50.9493L35.1495 49.0403C34.9268 48.9707 34.5568 48.8964 34.1142 48.9886C33.6285 49.0897 33.2206 49.358 32.9382 49.7109L34.5 50.9603L36.0617 52.2097C35.7911 52.548 35.3979 52.807 34.9299 52.9045C34.5049 52.993 34.1556 52.9205 33.9564 52.8583L34.553 50.9493ZM34.5 50.9603L32.643 50.2176L32.6342 50.2397L34.4911 50.9824L36.3481 51.7251L36.3569 51.7031L34.5 50.9603ZM34.4911 50.9824L32.4927 50.903L32.4552 51.8482L34.4536 51.9276L36.452 52.007L36.4896 51.0618L34.4911 50.9824ZM34.4536 51.9276L32.5133 52.4127L32.5244 52.4568L34.4646 51.9718L36.4049 51.4867L36.3939 51.4425L34.4536 51.9276ZM34.4646 51.9718L32.8794 53.1912L32.9015 53.2199L34.4867 52.0005L36.072 50.7811L36.0499 50.7523L34.4646 51.9718ZM34.4867 52.0005L33.3272 53.63L33.5569 53.7935L34.7164 52.1639L35.8759 50.5343L35.6462 50.3709L34.4867 52.0005ZM34.7164 52.1639L34.2011 54.0964L34.2342 54.1052L34.7495 52.1727L35.2648 50.2402L35.2317 50.2314L34.7164 52.1639ZM34.7495 52.1727L35.3819 54.0701L35.4084 54.0613L34.776 52.1639L34.1436 50.2665L34.1171 50.2753L34.7495 52.1727ZM34.776 52.1639L35.9355 53.7935L36.1652 53.63L35.0057 52.0005L33.8462 50.3709L33.6165 50.5343L34.776 52.1639ZM35.0057 52.0005L36.6057 53.2004L36.6322 53.1651L35.0322 51.9651L33.4322 50.7652L33.4057 50.8005L35.0057 52.0005ZM35.0322 51.9651L36.979 52.4232L36.9879 52.3856L35.041 51.9276L33.0942 51.4695L33.0853 51.5071L35.0322 51.9651ZM35.041 51.9276L37.0394 51.848L37.0019 50.9051L35.0035 50.9846L33.0051 51.0642L33.0426 52.0071L35.041 51.9276ZM35.0035 50.9846L36.9438 50.4996C36.8843 50.2617 36.751 49.9092 36.4437 49.5838C36.1121 49.2327 35.6899 49.0327 35.27 48.9681L34.9659 50.9449L34.6618 52.9216C34.261 52.86 33.8547 52.6681 33.5356 52.3302C33.2408 52.0181 33.1168 51.684 33.0632 51.4697L35.0035 50.9846ZM35.5511 50.6953L35.2472 48.7186L35.2185 48.723L35.5224 50.6998L35.8264 52.6765L35.8551 52.6721L35.5511 50.6953ZM35.5224 50.6998L34.6241 48.9128L34.2156 49.1182L35.1139 50.9051L36.0122 52.692L36.4207 52.4867L35.5224 50.6998ZM35.1139 50.9051L33.6997 49.4909L33.6776 49.513L35.0918 50.9272L36.506 52.3414L36.5281 52.3193L35.1139 50.9051ZM35.0918 50.9272L33.1622 50.4011L33.1556 50.4254L35.0852 50.9515L37.0147 51.4776L37.0214 51.4533L35.0918 50.9272ZM35.0852 50.9515L33.0869 51.0351L33.1267 51.9847L35.1249 51.9011L37.1232 51.8174L37.0834 50.8679L35.0852 50.9515ZM35.1249 51.9011L33.2788 52.6704L33.2898 52.6969L35.136 51.9276L36.9821 51.1583L36.9711 51.1318L35.1249 51.9011ZM35.136 51.9276L33.819 53.4328L33.8367 53.4482L35.1536 51.943L36.4706 50.4379L36.4529 50.4224L35.136 51.9276ZM35.1536 51.943L34.3138 53.7582L34.7577 53.9635L35.5975 52.1484L36.4373 50.3333L35.9935 50.1279L35.1536 51.943ZM35.5975 52.1484L35.0885 54.0826C35.3421 54.1493 35.7264 54.1989 36.1663 54.0775C36.6341 53.9485 36.9999 53.6712 37.2468 53.3502L35.6616 52.1308L34.0763 50.9113C34.3085 50.6095 34.6562 50.3447 35.1027 50.2215C35.5212 50.1061 35.8809 50.1549 36.1065 50.2143L35.5975 52.1484ZM35.6616 52.1308L37.5846 52.6802L37.5934 52.6492L35.6704 52.0998L33.7473 51.5504L33.7385 51.5813L35.6616 52.1308ZM35.6704 52.0998L37.6673 51.9893L37.5922 50.6333L35.5953 50.7439L33.5984 50.8545L33.6734 52.2104L35.6704 52.0998ZM35.5953 50.7439L37.5223 50.2086C37.3706 49.6623 36.9227 48.9912 36.0665 48.7629L35.5511 50.6953L35.0358 52.6278C34.693 52.5364 34.3618 52.3465 34.0989 52.0573C33.8489 51.7823 33.7273 51.4918 33.6683 51.2792L35.5953 50.7439ZM33.9722 50.6998L35.0088 48.9893C34.5581 48.7162 34.0197 48.6278 33.5058 48.742L33.9397 50.6944L34.3736 52.6468C33.8819 52.756 33.3668 52.6715 32.9356 52.4102L33.9722 50.6998ZM33.9397 50.6944L33.5058 48.742C32.9919 48.8563 32.5416 49.1644 32.2491 49.6026L33.9126 50.713L35.576 51.8234C35.2961 52.2426 34.8653 52.5375 34.3736 52.6468L33.9397 50.6944ZM33.9126 50.713L32.0743 49.9251L32.061 49.956L33.8993 50.7439L35.7376 51.5318L35.7508 51.5009L33.9126 50.713ZM33.8993 50.7439L31.9024 50.6333L31.8273 51.9893L33.8242 52.0998L35.8212 52.2104L35.8962 50.8545L33.8993 50.7439ZM33.8242 52.0998L31.8273 52.2108C31.8442 52.5147 31.9344 52.9103 32.2027 53.289C32.4759 53.6747 32.8354 53.904 33.1595 54.0255L33.8618 52.1528L34.564 50.2802C34.8645 50.3929 35.206 50.6089 35.4668 50.9769C35.7225 51.338 35.8057 51.7114 35.8211 51.9889L33.8242 52.0998ZM33.8618 52.1528L34.1262 54.1353L34.1593 54.1309L33.8949 52.1484L33.6304 50.166L33.5973 50.1704L33.8618 52.1528ZM33.8949 52.1484L34.7347 53.9635L35.1786 53.7582L34.3388 51.943L33.4989 50.1279L33.055 50.3333L33.8949 52.1484ZM34.3388 51.943L35.5881 53.5048L35.6102 53.4872L34.3608 51.9254L33.1115 50.3636L33.0894 50.3812L34.3388 51.943ZM34.3608 51.9254L36.2404 52.6088L36.2493 52.5845L34.3697 51.9011L32.4901 51.2176L32.4812 51.2419L34.3608 51.9254ZM34.3697 51.9011L36.3681 51.9801L36.4057 51.0305L34.4072 50.9515L32.4088 50.8725L32.3712 51.8221L34.3697 51.9011ZM34.4072 50.9515L36.3475 50.4664L36.3409 50.4399L34.4006 50.925L32.4603 51.4101L32.467 51.4366L34.4072 50.9515ZM34.4006 50.925L35.8148 49.5108L35.7927 49.4887L34.3785 50.9029L32.9643 52.3171L32.9864 52.3392L34.4006 50.925ZM34.3785 50.9029L35.2729 49.1141L34.8666 48.9109L33.9722 50.6998L33.0777 52.4886L33.4841 52.6918L34.3785 50.9029Z" fill="white" mask="url(#path-4-inside-1_114_5)"/>
<path d="M27.0459 5H44.6621C45.5749 5.00016 46.171 5.96239 45.7617 6.78125L40.0273 18.25H49.0605C50.1562 18.25 50.7053 19.5745 49.9307 20.3496L23.5342 46.7461C22.6132 47.6671 21.0867 46.7173 21.4971 45.4893L21.498 45.4883L27.5635 27.292H18.2305C18.0255 27.292 17.8237 27.2403 17.6436 27.1426C17.4634 27.0448 17.3109 26.9033 17.1992 26.7314C17.0875 26.5596 17.0201 26.3625 17.0039 26.1582C16.9878 25.9543 17.0226 25.7495 17.1055 25.5625L25.9219 5.73145V5.73047C26.1193 5.28589 26.5581 5.00004 27.0459 5Z" fill="#00EA08" stroke="white" stroke-width="2"/>
</svg>
